<svg xmlns="http://www.w3.org/2000/svg" width="28" height="28" viewBox="0 0 28 28">
  <defs>
    <style>
      .cls-1 {
        fill: #c6c5d4;
      }

      .cls-2 {
        fill: none;
      }
    </style>
  </defs>
  <g id="user" transform="translate(-38 -379)">
    <path id="user-2" data-name="user" class="cls-1" d="M2.912-13.02a5.275,5.275,0,0,0,2.394-4.424A5.3,5.3,0,0,0,0-22.75a5.3,5.3,0,0,0-5.306,5.306A5.275,5.275,0,0,0-2.912-13.02,8.269,8.269,0,0,0-8.288-5.25h1.4A6.883,6.883,0,0,1,0-12.138,6.883,6.883,0,0,1,6.888-5.25h1.4A8.269,8.269,0,0,0,2.912-13.02Zm-6.818-4.424A3.908,3.908,0,0,1,0-21.35a3.908,3.908,0,0,1,3.906,3.906A3.908,3.908,0,0,1,0-13.538,3.908,3.908,0,0,1-3.906-17.444Z" transform="translate(52.288 406.75)"/>
    <rect id="Rectangle_118" data-name="Rectangle 118" class="cls-2" width="28" height="28" transform="translate(38 379)"/>
  </g>
</svg>
