<svg xmlns="http://www.w3.org/2000/svg" width="345.992" height="235.92" viewBox="0 0 345.992 235.92">
    <defs>
        <style>
            .cls-1{fill:#756eff}.cls-2{fill:none;stroke:#756eff;stroke-width:2px}
        </style>
    </defs>
    <g id="evento_" data-name="evento" transform="translate(-546.918 -210.08)">
        <g id="cinema" transform="translate(643 291)">
            <path id="Path_26" d="M0 0v5.16h2.583v2.58a12.9 12.9 0 0 0 7.75 11.806v42.371H5.167v5.16h5.167v43.858h134.333V67.077h5.167v-5.16h-5.167V19.546a12.9 12.9 0 0 0 7.75-11.806V5.16H155V0zm111.083 5.16h15.5v2.58a7.75 7.75 0 0 1-15.5 0zm-20.667 0h15.5v2.58a7.75 7.75 0 0 1-15.5 0zm-20.667 0h15.5v2.58a7.75 7.75 0 0 1-15.5 0zm-20.667 0h15.5v2.58a7.75 7.75 0 0 1-15.5 0zm-20.667 0h15.5v2.58a7.75 7.75 0 0 1-15.5 0zM25.833 15.4a12.808 12.808 0 0 0 20.667 0 12.983 12.983 0 0 0 2.487 2.514 48.986 48.986 0 0 1-25.724 40.855l-5.833 3.148H15.5V20.639A12.875 12.875 0 0 0 25.833 15.4zM7.75 7.74V5.16h15.5v2.58a7.75 7.75 0 0 1-15.5 0zm20.667 98.035H15.5v-38.7h1.255l3.49 4.879a43.558 43.558 0 0 1 8.171 25.486zm93 0H33.583v-8.333a48.675 48.675 0 0 0-9.135-28.484L23.1 67.077h10.483v-5.16h-5.467a54.169 54.169 0 0 0 25.917-41.6A12.7 12.7 0 0 0 67.167 15.4a12.808 12.808 0 0 0 20.667 0 12.7 12.7 0 0 0 13.134 4.914 54.169 54.169 0 0 0 25.917 41.6h-5.467v5.16H131.9l-1.346 1.881a48.675 48.675 0 0 0-9.135 28.484zm18.083 0h-12.917v-8.333a43.558 43.558 0 0 1 8.171-25.486l3.49-4.879h1.256zm0-43.858h-1.93l-5.838-3.151a48.982 48.982 0 0 1-25.72-40.852A12.984 12.984 0 0 0 108.5 15.4a12.808 12.808 0 0 0 20.667 0 12.875 12.875 0 0 0 10.333 5.239zm7.75-54.177a7.75 7.75 0 0 1-15.5 0V5.16h15.5zm0 0" class="cls-1" data-name="Path 26"/>
            <path id="Path_27" d="M223.105 375.552v-7.776a7.777 7.777 0 0 0-7.776-7.776h-15.553a7.777 7.777 0 0 0-7.776 7.776v7.776h5.184v-7.776a2.592 2.592 0 0 1 2.592-2.592h15.553a2.592 2.592 0 0 1 2.592 2.592v7.776zm0 0" class="cls-1" data-name="Path 27" transform="translate(-130.053 -243.877)"/>
            <path id="Path_28" d="M111.105 375.552v-7.776a7.777 7.777 0 0 0-7.776-7.776H87.776A7.777 7.777 0 0 0 80 367.776v7.776h5.184v-7.776a2.592 2.592 0 0 1 2.592-2.592h15.553a2.592 2.592 0 0 1 2.592 2.592v7.776zm0 0" class="cls-1" data-name="Path 28" transform="translate(-54.189 -243.877)"/>
            <path id="Path_29" d="M335.105 375.552v-7.776a7.777 7.777 0 0 0-7.776-7.776h-15.553a7.777 7.777 0 0 0-7.776 7.776v7.776h5.184v-7.776a2.592 2.592 0 0 1 2.592-2.592h15.552a2.592 2.592 0 0 1 2.592 2.592v7.776zm0 0" class="cls-1" data-name="Path 29" transform="translate(-205.916 -243.877)"/>
            <path id="Path_30" d="M147.25 423.776A7.764 7.764 0 0 0 139.5 416H124a7.764 7.764 0 0 0-7.75 7.776v7.776h-5.167v-7.776a7.764 7.764 0 0 0-7.75-7.776h-15.5a7.764 7.764 0 0 0-7.75 7.776v7.776h-5.166v-7.776a7.764 7.764 0 0 0-7.75-7.776h-15.5a7.764 7.764 0 0 0-7.75 7.776v7.776H38.75v-7.776A7.764 7.764 0 0 0 31 416H15.5a7.764 7.764 0 0 0-7.75 7.776v7.776H0v5.184h155v-5.184h-7.75zm-25.833 0a2.588 2.588 0 0 1 2.583-2.592h15.5a2.588 2.588 0 0 1 2.583 2.592v7.776h-20.666zm-36.167 0a2.588 2.588 0 0 1 2.583-2.592h15.5a2.588 2.588 0 0 1 2.583 2.592v7.776H85.25zm-36.167 0a2.588 2.588 0 0 1 2.583-2.592h15.5a2.588 2.588 0 0 1 2.583 2.592v7.776H49.083zm-36.167 0a2.588 2.588 0 0 1 2.583-2.592H31a2.588 2.588 0 0 1 2.583 2.592v7.776H12.917zm0 0" class="cls-1" data-name="Path 30" transform="translate(0 -281.737)"/>
        </g>
        <g id="fundo">
            <g id="Group_38" data-name="Group 38" transform="translate(657.484 271.327)">
                <path id="Line_12" d="M10.293 0L0 3.885" class="cls-2" data-name="Line 12" transform="translate(0 3.204)"/>
                <path id="Line_13" d="M3.885 10.293L0 0" class="cls-2" data-name="Line 13" transform="translate(3.204)"/>
            </g>
            <g id="Group_39" data-name="Group 39" transform="translate(547.273 330.749)">
                <path id="Line_14" d="M3.92 0L0 10.28" class="cls-2" data-name="Line 14" transform="translate(3.18)"/>
                <path id="Line_15" d="M10.28 3.92L0 0" class="cls-2" data-name="Line 15" transform="translate(0 3.18)"/>
            </g>
            <g id="Group_44" data-name="Group 44" transform="translate(882.273 287.749)">
                <path id="Line_14-2" d="M3.92 0L0 10.28" class="cls-2" data-name="Line 14" transform="translate(3.18)"/>
                <path id="Line_15-2" d="M10.28 3.92L0 0" class="cls-2" data-name="Line 15" transform="translate(0 3.18)"/>
            </g>
            <g id="Group_40" data-name="Group 40" transform="translate(781.299 241.894)">
                <path id="Line_16" d="M.064 0L0 11.002" class="cls-2" data-name="Line 16" transform="translate(5.469)"/>
                <path id="Line_17" d="M11.002.064L0 0" class="cls-2" data-name="Line 17" transform="translate(0 5.469)"/>
            </g>
            <circle id="Ellipse_18" cx="4.769" cy="4.769" r="4.769" class="cls-2" data-name="Ellipse 18" transform="translate(692.512 211.08)"/>
            <circle id="Ellipse_19" cx="3.888" cy="3.888" r="3.888" class="cls-2" data-name="Ellipse 19" transform="translate(842.523 361.808)"/>
            <circle id="Ellipse_20" cx="1.888" cy="1.888" r="1.888" class="cls-2" data-name="Ellipse 20" transform="translate(742.523 278.808)"/>
            <circle id="Ellipse_23" cx="1.888" cy="1.888" r="1.888" class="cls-2" data-name="Ellipse 23" transform="translate(833.523 255.808)"/>
            <circle id="Ellipse_21" cx="1.888" cy="1.888" r="1.888" class="cls-2" data-name="Ellipse 21" transform="translate(666.523 235.808)"/>
            <circle id="Ellipse_22" cx="1.888" cy="1.888" r="1.888" class="cls-2" data-name="Ellipse 22" transform="translate(586.523 352.808)"/>
            <g id="Group_41" data-name="Group 41" transform="translate(591.709 289.794)">
                <path id="Line_18" d="M0 0l5.411 1.882" class="cls-2" data-name="Line 18" transform="translate(0 11.947)"/>
                <path id="Line_19" d="M0 0l4.066 4.27" class="cls-2" data-name="Line 19" transform="translate(4.867 4.304)"/>
                <path id="Line_20" d="M0 0l1.158 5.751" class="cls-2" data-name="Line 20" transform="translate(13.401)"/>
            </g>
            <g id="Group_42" data-name="Group 42" transform="translate(825.498 292.188)">
                <path id="Line_21" d="M.36 0L0 5.718" class="cls-2" data-name="Line 21"/>
                <path id="Line_22" d="M3.022 0L0 5.063" class="cls-2" data-name="Line 22" transform="translate(6.008 2.636)"/>
                <path id="Line_23" d="M5.229 0L0 2.66" class="cls-2" data-name="Line 23" transform="translate(10.238 9.701)"/>
            </g>
            <rect id="Rectangle_110" width="7.059" height="7.059" class="cls-2" data-name="Rectangle 110" rx=".502" transform="translate(591.572 230.707)"/>
            <path id="Path_14" d="M849.909 299.854l-3.791 6.564a.824.824 0 0 0 .714 1.235h7.58a.823.823 0 0 0 .714-1.235l-3.791-6.564a.823.823 0 0 0-1.426 0z" class="cls-2" data-name="Path 14" transform="translate(-3.686 -78.699)"/>
        </g>
    </g>
</svg>
