<svg xmlns="http://www.w3.org/2000/svg" width="22" height="16" viewBox="0 0 22 16">
  <defs>
    <style>
      .cls-1, .cls-2 {
        fill: #fff;
        stroke: #fff;
      }

      .cls-2 {
        stroke-width: 0.5px;
      }
    </style>
  </defs>
  <g id="new_video_icon" data-name="new video icon" transform="translate(0.5 0.5)">
    <g id="Layer_1" data-name="Layer 1">
      <path id="Path_15" data-name="Path 15" class="cls-1" d="M0,.742H12.158a.37.37,0,0,1,.368.371V2.967H1.216A1.224,1.224,0,0,0,0,4.195v9.414a1.224,1.224,0,0,0,1.216,1.224H14.99a1.224,1.224,0,0,0,1.22-1.224v-.051l2.818,1.312a1.447,1.447,0,0,0,.585.13,1.375,1.375,0,0,0,.746-.222A1.393,1.393,0,0,0,21,13.6V4.2a1.393,1.393,0,0,0-.64-1.177h0a1.374,1.374,0,0,0-1.331-.093L16.211,4.241V4.195a1.224,1.224,0,0,0-1.22-1.228H13.263V1.112A1.114,1.114,0,0,0,12.158,0H0M15.474,13.609a.465.465,0,0,1-.143.336.459.459,0,0,1-.341.127H1.216a.462.462,0,0,1-.461-.464V4.195a.465.465,0,0,1,.126-.343.459.459,0,0,1,.334-.144H14.99a.459.459,0,0,1,.349.135.465.465,0,0,1,.134.352Zm4.789,0a.645.645,0,0,1-.3.552.623.623,0,0,1-.622.042l-3.132-1.451V5.057l3.132-1.451a.646.646,0,0,1,.622.043.655.655,0,0,1,.3.55Z"/>
      <path id="Path_16" data-name="Path 16" class="cls-2" d="M17.26,15.351V16.3H14.7V18.86h-.947V16.3H11.19v-.947h2.561V12.79H14.7v2.561Z" transform="translate(-6.093 -6.945)"/>
    </g>
  </g>
</svg>
