<svg xmlns="http://www.w3.org/2000/svg" width="18" height="18" viewBox="0 0 18 18">
    <defs>
        <style>
            .cls-1{fill:#c6c5d4}
        </style>
    </defs>
    <path id="calendario" d="M-3.162-48.115h-3.046v-.692A.686.686 0 0 0-6.9-49.5a.686.686 0 0 0-.692.692v.692h-5.815v-.692a.686.686 0 0 0-.693-.692.686.686 0 0 0-.692.692v.692h-3.046a1.666 1.666 0 0 0-1.662 1.662v13.292a1.666 1.666 0 0 0 1.662 1.662h14.676A1.666 1.666 0 0 0-1.5-33.162v-13.292a1.666 1.666 0 0 0-1.662-1.661zm-14.677 1.385h3.046v.692a.686.686 0 0 0 .692.692.686.686 0 0 0 .692-.692v-.692h5.815v.692a.686.686 0 0 0 .692.692.686.686 0 0 0 .692-.692v-.692h3.046a.278.278 0 0 1 .277.277v2.174h-15.228v-2.174a.278.278 0 0 1 .277-.278zm14.677 13.845h-14.676a.278.278 0 0 1-.277-.277V-42.9h15.23v9.734a.278.278 0 0 1-.277.281zm-9.415-8.058a.963.963 0 0 0-.969-.969.963.963 0 0 0-.969.969.963.963 0 0 0 .969.969.963.963 0 0 0 .969-.969zm3.046 0a.963.963 0 0 0-.969-.969.963.963 0 0 0-.969.969.963.963 0 0 0 .969.969.963.963 0 0 0 .969-.969zm3.046.014a.963.963 0 0 0-.969-.969.963.963 0 0 0-.969.969.963.963 0 0 0 .969.969.963.963 0 0 0 .969-.969zm3.046 0a.963.963 0 0 0-.969-.969.963.963 0 0 0-.969.969.963.963 0 0 0 .969.969.963.963 0 0 0 .97-.969zm-9.138 3.029a.963.963 0 0 0-.969-.969.963.963 0 0 0-.969.969.963.963 0 0 0 .969.969.963.963 0 0 0 .969-.969zm-3.046.014a.963.963 0 0 0-.969-.969.963.963 0 0 0-.969.969.963.963 0 0 0 .969.969.963.963 0 0 0 .969-.966zm6.092 0a.963.963 0 0 0-.969-.969.963.963 0 0 0-.969.969.963.963 0 0 0 .969.969.963.963 0 0 0 .969-.966zm3.046 0a.963.963 0 0 0-.969-.969.963.963 0 0 0-.969.969.963.963 0 0 0 .969.969.963.963 0 0 0 .969-.966zm3.046 0a.963.963 0 0 0-.969-.969.963.963 0 0 0-.969.969.963.963 0 0 0 .969.969.963.963 0 0 0 .97-.966zm-9.138 3.032a.963.963 0 0 0-.969-.969.963.963 0 0 0-.969.969.963.963 0 0 0 .969.969.963.963 0 0 0 .969-.966zm-3.046.014a.963.963 0 0 0-.969-.969.963.963 0 0 0-.969.969.963.963 0 0 0 .969.969.963.963 0 0 0 .969-.966zm6.092 0a.963.963 0 0 0-.969-.969.963.963 0 0 0-.969.969.963.963 0 0 0 .969.969.963.963 0 0 0 .969-.966z" class="cls-1" transform="translate(19.5 49.5)"/>
</svg>
