<svg xmlns="http://www.w3.org/2000/svg" width="28" height="28" viewBox="0 0 28 28">
  <defs>
    <style>
      .cls-1 {
        fill: #756eff;
      }

      .cls-2 {
        fill: none;
      }
    </style>
  </defs>
  <g id="ajuda-mouseover" transform="translate(-39 -689)">
    <path id="help" class="cls-1" d="M9.674-18.088A10.543,10.543,0,0,0,7.42-21.42a10.543,10.543,0,0,0-3.332-2.254A10.507,10.507,0,0,0,0-24.5a10.507,10.507,0,0,0-4.088.826A10.543,10.543,0,0,0-7.42-21.42a10.543,10.543,0,0,0-2.254,3.332A10.507,10.507,0,0,0-10.5-14a10.405,10.405,0,0,0,.826,4.088A10.448,10.448,0,0,0-7.42-6.566a10.275,10.275,0,0,0,3.332,2.24A10.26,10.26,0,0,0,0-3.5a10.26,10.26,0,0,0,4.088-.826A10.275,10.275,0,0,0,7.42-6.566,10.448,10.448,0,0,0,9.674-9.912,10.405,10.405,0,0,0,10.5-14,10.507,10.507,0,0,0,9.674-18.088ZM1.988-22.876.952-19.516A5.35,5.35,0,0,0,0-19.6a5.35,5.35,0,0,0-.952.084l-1.036-3.36A9.4,9.4,0,0,1,0-23.1,9.4,9.4,0,0,1,1.988-22.876Zm-8.428,2.45a9.222,9.222,0,0,1,2.9-1.96l.224-.084L-2.3-19.11a5.9,5.9,0,0,0-1.666,1.148A5.9,5.9,0,0,0-5.11-16.3l-3.36-1.022.084-.224A9.2,9.2,0,0,1-6.44-20.426Zm12.88,0a9.2,9.2,0,0,1,1.946,2.884l.084.224L5.11-16.3a5.9,5.9,0,0,0-1.148-1.666A5.9,5.9,0,0,0,2.3-19.11l1.022-3.36.224.084A9.222,9.222,0,0,1,6.44-20.426ZM0-9.8a4.162,4.162,0,0,1-2.968-1.232A4.138,4.138,0,0,1-4.2-14a4.162,4.162,0,0,1,1.232-2.968A4.22,4.22,0,0,1,0-18.2a4.22,4.22,0,0,1,2.968,1.232A4.162,4.162,0,0,1,4.2-14a4.138,4.138,0,0,1-1.232,2.968A4.162,4.162,0,0,1,0-9.8ZM-9.1-14a9.266,9.266,0,0,1,.21-1.974l3.374,1.022A5.35,5.35,0,0,0-5.6-14a5.628,5.628,0,0,0,.084.966L-8.89-12.012A9.3,9.3,0,0,1-9.1-14ZM9.1-14a9.3,9.3,0,0,1-.21,1.988L5.516-13.034A5.628,5.628,0,0,0,5.6-14a5.35,5.35,0,0,0-.084-.952L8.89-15.974A9.266,9.266,0,0,1,9.1-14ZM-6.44-7.56a9.259,9.259,0,0,1-1.946-2.9l-.084-.21L-5.11-11.7a5.531,5.531,0,0,0,1.148,1.666A5.628,5.628,0,0,0-2.3-8.89L-3.318-5.516c-.084-.028-.154-.07-.224-.1A8.952,8.952,0,0,1-6.44-7.56Zm12.88,0a8.952,8.952,0,0,1-2.9,1.946c-.07.028-.14.07-.224.1L2.3-8.89a5.628,5.628,0,0,0,1.666-1.148A5.531,5.531,0,0,0,5.11-11.7l3.36,1.036-.084.21A9.259,9.259,0,0,1,6.44-7.56ZM-1.988-5.11-.952-8.47A7.085,7.085,0,0,0,0-8.4a7.085,7.085,0,0,0,.952-.07L1.988-5.11A9.4,9.4,0,0,1,0-4.9,9.4,9.4,0,0,1-1.988-5.11Z" transform="translate(53 717)"/>
    <rect id="Rectangle_121" data-name="Rectangle 121" class="cls-2" width="28" height="28" transform="translate(39 689)"/>
  </g>
</svg>
