<svg xmlns="http://www.w3.org/2000/svg" width="28" height="28" viewBox="0 0 28 28">
    <defs>
        <style>
            .cls-1{fill:#756eff}.cls-2{fill:none}
        </style>
    </defs>
    <g id="sair-mouseover" transform="translate(-38 -738)">
        <g id="logout" transform="translate(42 742)">
            <g id="Sign_Out">
                <path id="Path_6" d="M9.4 18.751H1.253v-17.5H9.4A.625.625 0 1 0 9.4 0H.626A.626.626 0 0 0 0 .626v18.75A.626.626 0 0 0 .626 20H9.4a.625.625 0 1 0 0-1.25z" class="cls-1" data-name="Path 6" transform="translate(0 -.001)"/>
                <path id="Path_7" d="M99.726 100.9L95.4 96.514a.622.622 0 0 0-.886 0 .636.636 0 0 0 0 .895l3.257 3.3h-12.9a.633.633 0 0 0 0 1.265h12.9l-3.257 3.3a.636.636 0 0 0 0 .895.621.621 0 0 0 .886 0l4.322-4.384a.64.64 0 0 0 .004-.885z" class="cls-1" data-name="Path 7" transform="translate(-79.908 -91.336)"/>
            </g>
        </g>
        <path id="Rectangle_122" d="M0 0h28v28H0z" class="cls-2" data-name="Rectangle 122" transform="translate(38 738)"/>
    </g>
</svg>
