<svg xmlns="http://www.w3.org/2000/svg" width="20" height="20" viewBox="0 0 20 20">
  <defs>
    <style>
      .cls-1 {
        fill: #c6c5d4;
      }
    </style>
  </defs>
  <g id="logout" transform="translate(0 0)">
    <g id="Sign_Out">
      <path id="Path_6" data-name="Path 6" class="cls-1" d="M9.4,18.751H1.253V1.251H9.4A.625.625,0,1,0,9.4,0H.626A.626.626,0,0,0,0,.626v18.75A.626.626,0,0,0,.626,20H9.4a.625.625,0,1,0,0-1.25Z" transform="translate(0 -0.001)"/>
      <path id="Path_7" data-name="Path 7" class="cls-1" d="M99.726,100.9,95.4,96.514a.622.622,0,0,0-.886,0,.636.636,0,0,0,0,.895l3.257,3.3h-12.9a.633.633,0,0,0,0,1.265h12.9l-3.257,3.3a.636.636,0,0,0,0,.895.621.621,0,0,0,.886,0l4.322-4.384A.64.64,0,0,0,99.726,100.9Z" transform="translate(-79.908 -91.336)"/>
    </g>
  </g>
</svg>
