<svg xmlns="http://www.w3.org/2000/svg" width="28" height="28" viewBox="0 0 28 28">
  <defs>
    <style>
      .cls-1, .cls-3 {
        fill: none;
      }

      .cls-2, .cls-5 {
        fill: #756eff;
      }

      .cls-2 {
        stroke: #756eff;
        stroke-width: 0.3px;
      }

      .cls-4, .cls-5 {
        stroke: none;
      }
    </style>
  </defs>
  <g id="meus_envios-mouseover" data-name="meus envios-mouseover" transform="translate(-38 -421)">
    <g id="my_videos" data-name="my videos" transform="translate(42 428)">
      <g id="Path_15" data-name="Path 15" class="cls-1">
        <path class="cls-4" d="M2,0H18a2,2,0,0,1,2,2V12a2,2,0,0,1-2,2H2a2,2,0,0,1-2-2V2A2,2,0,0,1,2,0Z"/>
        <path class="cls-5" d="M 2 1.399999618530273 C 1.669160842895508 1.399999618530273 1.399999618530273 1.669159889221191 1.399999618530273 2 L 1.399999618530273 12 C 1.399999618530273 12.33084011077881 1.669160842895508 12.60000038146973 2 12.60000038146973 L 18 12.60000038146973 C 18.33083915710449 12.60000038146973 18.60000038146973 12.33084011077881 18.60000038146973 12 L 18.60000038146973 2 C 18.60000038146973 1.669159889221191 18.33083915710449 1.399999618530273 18 1.399999618530273 L 2 1.399999618530273 M 2 0 L 18 0 C 19.10457038879395 0 20 0.8954296112060547 20 2 L 20 12 C 20 13.10457038879395 19.10457038879395 14 18 14 L 2 14 C 0.8954296112060547 14 0 13.10457038879395 0 12 L 0 2 C 0 0.8954296112060547 0.8954296112060547 0 2 0 Z"/>
      </g>
      <path id="play001_-_E09A" data-name="play001 - E09A" class="cls-2" d="M-14.655-47.64v6.034l4.827-3.017Zm.494.9,3.374,2.114-3.374,2.114Z" transform="translate(22.655 51.64)"/>
    </g>
    <rect id="Rectangle_119" data-name="Rectangle 119" class="cls-3" width="28" height="28" transform="translate(38 421)"/>
  </g>
</svg>
