<svg xmlns="http://www.w3.org/2000/svg" width="14.5" height="14.5" viewBox="0 0 14.5 14.5">
  <defs>
    <style>
      .cls-1 {
        fill: #fff;
        stroke: #fff;
        stroke-width: 0.5px;
      }
    </style>
  </defs>
  <path id="explore_button" data-name="explore button" class="cls-1" d="M-12.5-49.5a7,7,0,0,0-7,7,7,7,0,0,0,7,7,7,7,0,0,0,7-7A7,7,0,0,0-12.5-49.5Zm0,12.923A5.934,5.934,0,0,1-18.423-42.5,5.934,5.934,0,0,1-12.5-48.423,5.934,5.934,0,0,1-6.577-42.5,5.934,5.934,0,0,1-12.5-36.577Zm-4.028-1.885L-11.1-41.1l2.638-5.428-5.471,2.6Zm4.878-3.942-.958-.958,1.842-.883Zm-1.712-.2.958.958-1.842.883Z" transform="translate(19.75 49.75)"/>
</svg>
