<svg xmlns="http://www.w3.org/2000/svg" width="28" height="28" viewBox="0 0 28 28">
  <defs>
    <style>
      .cls-1 {
        fill: #756eff;
        stroke: #756eff;
        stroke-width: 0.5px;
      }

      .cls-2 {
        fill: none;
      }
    </style>
  </defs>
  <g id="maleta" transform="translate(-1234 -408)">
    <g id="briefcase" transform="translate(1239 371.334)">
      <g id="Group_50" data-name="Group 50" transform="translate(0 42.666)">
        <path id="Path_23" data-name="Path 23" class="cls-1" d="M16.5,45.066H12.75v-.8a1.554,1.554,0,0,0-1.5-1.6H6.75a1.554,1.554,0,0,0-1.5,1.6v.8H1.5a1.554,1.554,0,0,0-1.5,1.6v10.4a1.554,1.554,0,0,0,1.5,1.6h15a1.554,1.554,0,0,0,1.5-1.6v-10.4A1.554,1.554,0,0,0,16.5,45.066ZM6,44.266a.777.777,0,0,1,.75-.8h4.5a.777.777,0,0,1,.75.8v.8H6Zm11.25,12.8a.777.777,0,0,1-.75.8H1.5a.777.777,0,0,1-.75-.8V51.244a1.414,1.414,0,0,0,.75.223h6v1.2a.388.388,0,0,0,.375.4h2.25a.388.388,0,0,0,.375-.4v-1.2h6a1.413,1.413,0,0,0,.75-.223v5.823Zm-9-4.8v-1.6h1.5v1.6Zm9-2.4a.777.777,0,0,1-.75.8h-6v-.4a.388.388,0,0,0-.375-.4H7.875a.388.388,0,0,0-.375.4v.4h-6a.777.777,0,0,1-.75-.8v-3.2a.777.777,0,0,1,.75-.8h15a.777.777,0,0,1,.75.8Z" transform="translate(0 -42.666)"/>
      </g>
    </g>
    <rect id="Rectangle_142" data-name="Rectangle 142" class="cls-2" width="28" height="28" transform="translate(1234 408)"/>
  </g>
</svg>
