<svg xmlns="http://www.w3.org/2000/svg" width="45" height="36" viewBox="0 0 45 36">
    <defs>
        <style>
            .cls-1{fill:#fff}
        </style>
    </defs>
    <path id="camera" d="M17.25-42.42H11.3l-4.033-4.17A4.944 4.944 0 0 0 3.85-48h-8.393a4.881 4.881 0 0 0-3.21 1.23l-4.27 4.35h-6.067a4.859 4.859 0 0 0-4.83 4.92v20.58A4.859 4.859 0 0 0-18.09-12h35.34a4.859 4.859 0 0 0 4.83-4.92V-37.5a4.859 4.859 0 0 0-4.83-4.92zm0 3a1.916 1.916 0 0 1 1.885 1.92v20.58A1.916 1.916 0 0 1 17.25-15h-35.34a1.916 1.916 0 0 1-1.885-1.92V-37.5a1.916 1.916 0 0 1 1.885-1.92h7.3l5.095-5.19A1.775 1.775 0 0 1-4.543-45H3.85a1.852 1.852 0 0 1 1.355.57l4.859 5.01zM10.506-28.5A11.045 11.045 0 0 0-.42-39.63 11.045 11.045 0 0 0-11.346-28.5 11.045 11.045 0 0 0-.42-17.37 11.045 11.045 0 0 0 10.506-28.5zm-2.945 0A8.082 8.082 0 0 1-.42-20.37 8.082 8.082 0 0 1-8.4-28.5a8.082 8.082 0 0 1 7.98-8.13 8.082 8.082 0 0 1 7.981 8.13z" class="cls-1" transform="translate(22.92 48)"/>
</svg>
