<svg xmlns="http://www.w3.org/2000/svg" width="32" height="32" viewBox="0 0 32 32">
    <defs>
        <style>
            .cls-1{fill:none}.cls-2{fill:#2d304b;stroke:#2d304b}.cls-3{clip-path:url(#clip-path)}.cls-4{fill:#c6c5d4}.cls-5{stroke:none}
        </style>
        <clipPath id="clip-path">
            <circle id="Ellipse_33" cx="16" cy="16" r="16" class="cls-1" data-name="Ellipse 33" transform="translate(36 371)"/>
        </clipPath>
    </defs>
    <g id="user-placeholder" transform="translate(-36 -371)">
        <g id="Ellipse_4" class="cls-2" data-name="Ellipse 4" transform="translate(36 371)">
            <circle cx="16" cy="16" r="16" class="cls-5"/>
            <circle cx="16" cy="16" r="15.5" class="cls-1"/>
        </g>
        <g id="Mask_Group_3" class="cls-3" data-name="Mask Group 3">
            <path id="user" d="M2.912-13.02a5.275 5.275 0 0 0 2.394-4.424A5.3 5.3 0 0 0 0-22.75a5.3 5.3 0 0 0-5.306 5.306 5.275 5.275 0 0 0 2.394 4.424 8.269 8.269 0 0 0-5.376 7.77h1.4A6.883 6.883 0 0 1 0-12.138 6.883 6.883 0 0 1 6.888-5.25h1.4a8.269 8.269 0 0 0-5.376-7.77zm-6.818-4.424A3.908 3.908 0 0 1 0-21.35a3.908 3.908 0 0 1 3.906 3.906A3.908 3.908 0 0 1 0-13.538a3.908 3.908 0 0 1-3.906-3.906z" class="cls-4" transform="translate(52.288 406.75)"/>
        </g>
    </g>
</svg>
