<svg xmlns="http://www.w3.org/2000/svg" width="19.992" height="18.144" viewBox="0 0 19.992 18.144">
    <defs>
        <style>
            .cls-1{fill:#c6c5d4}
        </style>
    </defs>
    <path id="livro" d="M4.382-23.072A5.212 5.212 0 0 0 0-20.832a5.212 5.212 0 0 0-4.382-2.24A9.443 9.443 0 0 0-10-20.9v14.446a8.072 8.072 0 0 1 5.614-2.7c2.17 0 3.654 1.414 4.382 4.228.732-2.816 2.216-4.23 4.386-4.23A8.072 8.072 0 0 1 10-6.454V-20.9a9.443 9.443 0 0 0-5.618-2.172zm-8.764 12.516A8.885 8.885 0 0 0-8.6-9.338v-10.878a7.808 7.808 0 0 1 4.214-1.456A3.96 3.96 0 0 1-.7-19.32v10.192a5.209 5.209 0 0 0-3.682-1.428zM8.6-9.338a8.885 8.885 0 0 0-4.214-1.218A5.209 5.209 0 0 0 .7-9.128V-19.32a3.96 3.96 0 0 1 3.682-2.352A7.808 7.808 0 0 1 8.6-20.216z" class="cls-1" transform="translate(9.996 23.072)"/>
</svg>
