<svg xmlns="http://www.w3.org/2000/svg" width="20" height="20" viewBox="0 0 20 20">
  <defs>
    <style>
      .cls-1 {
        fill: #c536a4;
      }
    </style>
  </defs>
  <path id="instagram" class="cls-1" d="M10,8.011A1.989,1.989,0,1,0,11.989,10,1.991,1.991,0,0,0,10,8.011Zm0,0A1.989,1.989,0,1,0,11.989,10,1.991,1.991,0,0,0,10,8.011Zm3.313-3.243H6.687A1.921,1.921,0,0,0,4.769,6.687v6.626a1.921,1.921,0,0,0,1.918,1.918h6.626a1.921,1.921,0,0,0,1.918-1.918V6.687A1.921,1.921,0,0,0,13.313,4.769ZM10,13.444A3.444,3.444,0,1,1,13.444,10,3.448,3.448,0,0,1,10,13.444Zm3.555-6.176a.815.815,0,1,1,.815-.815A.816.816,0,0,1,13.555,7.268ZM10,8.011A1.989,1.989,0,1,0,11.989,10,1.991,1.991,0,0,0,10,8.011Zm3.313-3.243H6.687A1.921,1.921,0,0,0,4.769,6.687v6.626a1.921,1.921,0,0,0,1.918,1.918h6.626a1.921,1.921,0,0,0,1.918-1.918V6.687A1.921,1.921,0,0,0,13.313,4.769ZM10,13.444A3.444,3.444,0,1,1,13.444,10,3.448,3.448,0,0,1,10,13.444Zm3.555-6.176a.815.815,0,1,1,.815-.815A.816.816,0,0,1,13.555,7.268ZM10,8.011A1.989,1.989,0,1,0,11.989,10,1.991,1.991,0,0,0,10,8.011ZM0,0V20H20V0ZM16.687,13.313a3.377,3.377,0,0,1-3.373,3.373H6.687a3.377,3.377,0,0,1-3.373-3.373V6.687A3.377,3.377,0,0,1,6.687,3.313h6.626a3.377,3.377,0,0,1,3.373,3.373ZM13.313,4.769H6.687A1.921,1.921,0,0,0,4.769,6.687v6.626a1.921,1.921,0,0,0,1.918,1.918h6.626a1.921,1.921,0,0,0,1.918-1.918V6.687A1.921,1.921,0,0,0,13.313,4.769ZM10,13.444A3.444,3.444,0,1,1,13.444,10,3.448,3.448,0,0,1,10,13.444Zm3.555-6.176a.815.815,0,1,1,.815-.815A.816.816,0,0,1,13.555,7.268ZM10,8.011A1.989,1.989,0,1,0,11.989,10,1.991,1.991,0,0,0,10,8.011Zm0,0A1.989,1.989,0,1,0,11.989,10,1.991,1.991,0,0,0,10,8.011Zm0,0A1.989,1.989,0,1,0,11.989,10,1.991,1.991,0,0,0,10,8.011Zm3.313-3.243H6.687A1.921,1.921,0,0,0,4.769,6.687v6.626a1.921,1.921,0,0,0,1.918,1.918h6.626a1.921,1.921,0,0,0,1.918-1.918V6.687A1.921,1.921,0,0,0,13.313,4.769ZM10,13.444A3.444,3.444,0,1,1,13.444,10,3.448,3.448,0,0,1,10,13.444Zm3.555-6.176a.815.815,0,1,1,.815-.815A.816.816,0,0,1,13.555,7.268ZM10,8.011A1.989,1.989,0,1,0,11.989,10,1.991,1.991,0,0,0,10,8.011Zm0,0A1.989,1.989,0,1,0,11.989,10,1.991,1.991,0,0,0,10,8.011Zm0,0A1.989,1.989,0,1,0,11.989,10,1.991,1.991,0,0,0,10,8.011Zm3.313-3.243H6.687A1.921,1.921,0,0,0,4.769,6.687v6.626a1.921,1.921,0,0,0,1.918,1.918h6.626a1.921,1.921,0,0,0,1.918-1.918V6.687A1.921,1.921,0,0,0,13.313,4.769ZM10,13.444A3.444,3.444,0,1,1,13.444,10,3.448,3.448,0,0,1,10,13.444Zm3.555-6.176a.815.815,0,1,1,.815-.815A.816.816,0,0,1,13.555,7.268ZM10,8.011A1.989,1.989,0,1,0,11.989,10,1.991,1.991,0,0,0,10,8.011Z"/>
</svg>
