<svg xmlns="http://www.w3.org/2000/svg" id="lumi" width="64.001" height="30.251" viewBox="0 0 64.001 30.251">
    <defs>
        <style>
            .cls-1{fill:#2e3045;opacity:.996}.cls-2{fill:#5b52ff}
        </style>
    </defs>
    <g id="Layer_1" data-name="Layer 1">
        <path id="Path_1" d="M61.65 8a2.19 2.19 0 0 1 1.65.69 2.27 2.27 0 0 1 .7 1.67v17.56a2.16 2.16 0 0 1-.7 1.64 2.19 2.19 0 0 1-1.65.69 2.32 2.32 0 0 1-1.68-.69 2.19 2.19 0 0 1-.7-1.64V10.35A2.37 2.37 0 0 1 61.61 8z" class="cls-1" data-name="Path 1" transform="translate(.001)"/>
        <path id="Path_2" d="M27.45 20.86V10.28a2.25 2.25 0 0 0-.22-1c-.05-.1-.11-.2-.17-.3a3.31 3.31 0 0 0-.31-.36 2.22 2.22 0 0 0-.56-.42 1.23 1.23 0 0 0-.31-.14 1.78 1.78 0 0 0-.33-.06 2.15 2.15 0 0 0-.45 0h-.24a2.3 2.3 0 0 0-1.05.35 2.61 2.61 0 0 0-.42.34 2.57 2.57 0 0 0-.47.64 2.31 2.31 0 0 0-.23 1v10.53a4.89 4.89 0 0 1 0 .54 4.4 4.4 0 0 1-1.31 2.72 4.73 4.73 0 0 1-6.6 0 4.48 4.48 0 0 1-1.34-3.26V10.28a2.373 2.373 0 0 0-2.35-2.35H11a2.37 2.37 0 0 0-2.35 2.35v10.58a9 9 0 0 0 2.76 6.59 9.09 9.09 0 0 0 6.65 2.74 9 9 0 0 0 4.83-1.32 9.61 9.61 0 0 0 1.8-1.42 8.9 8.9 0 0 0 2.74-5.88v-.71z" class="cls-2" data-name="Path 2" transform="translate(.001)"/>
        <path id="Path_3" d="M52.58 6A9.06 9.06 0 0 0 46 3.28c-3.09 0-5.41 1-7 3.05a8.383 8.383 0 0 0-7-3.05 9 9 0 0 0-4.81 1.3A10 10 0 0 0 25.4 6c-.13.14-.26.27-.38.41a2.2 2.2 0 0 0-.2.23l-.16.19a2.7 2.7 0 0 1 3.69 2.5 2.62 2.62 0 0 1-.06.57l.09-.11a2.75 2.75 0 0 1 .22-.26l.19-.21a4.59 4.59 0 0 1 7.84 3.23v15.3a2.16 2.16 0 0 0 .7 1.65 2.3 2.3 0 0 0 1.67.69 2.39 2.39 0 0 0 2.36-2.34V12.57a4.39 4.39 0 0 1 1.34-3.23 4.65 4.65 0 0 1 6.51 0 4.4 4.4 0 0 1 1.35 3.23v15.28a2.16 2.16 0 0 0 .7 1.65 2.19 2.19 0 0 0 1.65.69 2.28 2.28 0 0 0 1.67-.69 2.23 2.23 0 0 0 .68-1.65V12.57A9 9 0 0 0 52.58 6z" class="cls-1" data-name="Path 3" transform="translate(.001)"/>
        <path id="Path_4" d="M2.41 0a2.32 2.32 0 0 1 1.66.68 2.27 2.27 0 0 1 .7 1.66v25.51a2.2 2.2 0 0 1-.7 1.65 2.29 2.29 0 0 1-1.66.69h-.06A2.28 2.28 0 0 1 .7 29.5a2.16 2.16 0 0 1-.7-1.65V2.34A2.23 2.23 0 0 1 .7.68 2.31 2.31 0 0 1 2.35 0z" class="cls-2" data-name="Path 4" transform="translate(.001)"/>
    </g>
</svg>
