<svg xmlns="http://www.w3.org/2000/svg" width="28" height="28" viewBox="0 0 28 28">
  <defs>
    <style>
      .cls-1 {
        fill: #756eff;
      }

      .cls-2 {
        fill: none;
      }
    </style>
  </defs>
  <g id="lixo" transform="translate(-698 -560)">
    <path id="trash001_-_E062" data-name="trash001 - E062" class="cls-1" d="M-13.886-32.056A2.254,2.254,0,0,0-11.65-29.9h7.6a2.254,2.254,0,0,0,2.236-2.156l.641-12.923H-.1v-1.508H-4.422v-.754A1.644,1.644,0,0,0-6.062-48.9H-9.638a1.644,1.644,0,0,0-1.639,1.659v.754H-15.6v1.508h1.073Zm4.1-15.185a.142.142,0,0,1,.149-.151h3.577a.142.142,0,0,1,.149.151v.754H-9.788ZM-3.3-32.132a.755.755,0,0,1-.745.724h-7.6a.755.755,0,0,1-.745-.724l-.626-12.848H-2.678Zm-6.334-.814L-10-43.487l-1.49.045.358,10.556Zm5.425-10.5-1.49-.045-.358,10.54,1.49.06Zm-2.891-.03H-8.6v10.556H-7.1Z" transform="translate(719.6 612.9)"/>
    <rect id="Rectangle_141" data-name="Rectangle 141" class="cls-2" width="28" height="28" transform="translate(698 560)"/>
  </g>
</svg>
