<svg xmlns="http://www.w3.org/2000/svg" width="20" height="15.5" viewBox="0 0 20 15.5">
    <defs>
        <style>
            .cls-1{fill:#c5cbd4}.cls-2{fill:#c6c5d4}
        </style>
    </defs>
    <g id="resultados_busca" data-name="resultados busca" transform="translate(0 -54.99)">
        <path id="Path_9" d="M19.592 54.99H.408A.408.408 0 0 0 0 55.4v14.682a.408.408 0 0 0 .408.408h19.184a.408.408 0 0 0 .408-.408V55.4a.408.408 0 0 0-.408-.41zm-.408.816v1.961H.816v-1.961zM.816 69.674V58.582h18.368v11.092z" class="cls-1" data-name="Path 9"/>
        <path id="search" d="M2.871-6.594a3.448 3.448 0 0 0-3.45-3.456 3.452 3.452 0 0 0-3.45 3.456A3.445 3.445 0 0 0-.579-3.15a3.434 3.434 0 0 0 2.2-.786L3.6-1.95l.426-.426-1.98-1.98a3.411 3.411 0 0 0 .825-2.238zM-.579-3.75a2.821 2.821 0 0 1-1.11-.222 2.963 2.963 0 0 1-.906-.606 2.893 2.893 0 0 1-.605-.906 2.784 2.784 0 0 1-.228-1.11A2.856 2.856 0 0 1-3.2-7.71a2.963 2.963 0 0 1 .606-.906 2.811 2.811 0 0 1 .906-.612A2.909 2.909 0 0 1-.579-9.45a2.834 2.834 0 0 1 1.116.228 2.867 2.867 0 0 1 .9.606 2.837 2.837 0 0 1 .612.912 2.821 2.821 0 0 1 .222 1.11 2.771 2.771 0 0 1-.222 1.1 2.678 2.678 0 0 1-.606.9 2.765 2.765 0 0 1-.906.618 2.85 2.85 0 0 1-1.116.226z" class="cls-2" transform="translate(13 69.99)"/>
    </g>
</svg>
