<svg xmlns="http://www.w3.org/2000/svg" width="24.452" height="24.374" viewBox="0 0 24.452 24.374">
  <defs>
    <style>
      .cls-1 {
        fill: #c6c5d4;
        stroke-width: 0.3px;
      }

      .cls-1, .cls-2 {
        stroke: #c6c5d4;
      }

      .cls-2 {
        fill: none;
      }
    </style>
  </defs>
  <g id="clap" transform="translate(0.228 0.224)">
    <path id="Path_22" data-name="Path 22" class="cls-1" d="M20.071,12.545a2.023,2.023,0,0,0-.834-.365c.02-.035.039-.07.056-.105l.19-.181a1.85,1.85,0,0,0,.179-2.548,2.011,2.011,0,0,0-1.17-.683,1.921,1.921,0,0,0,.088-.175,1.834,1.834,0,0,0-.062-2.272,2.011,2.011,0,0,0-1.17-.684,1.827,1.827,0,0,0-.176-2.095,2.08,2.08,0,0,0-2.9-.248,1.825,1.825,0,0,0-.4-.838,2.036,2.036,0,0,0-1.573-.723h0a2.045,2.045,0,0,0-1.417.556l-4.8,4.564L6.067,6.14A1.949,1.949,0,0,0,4.073,4.261,1.952,1.952,0,0,0,2.081,6.084l-.959,6.624-.788.87a1.279,1.279,0,0,0,.072,1.8l1.172,1.111a1.278,1.278,0,0,0,.174,1.668l5.5,5.218a1.42,1.42,0,0,0,.983.386,1.447,1.447,0,0,0,.847-.273l1.148-.838a11.137,11.137,0,0,0,3.622-1.675,27.789,27.789,0,0,0,3.659-2.988l2.735-2.6a1.854,1.854,0,0,0,.582-1.457A1.879,1.879,0,0,0,20.071,12.545ZM14.854,3.908A1.1,1.1,0,0,1,16.431,4a.987.987,0,0,1-.106,1.352l-.488.463a1.982,1.982,0,0,0-.217.156,1.825,1.825,0,0,0-.4-.838,2,2,0,0,0-.985-.64ZM11.559,2.822a1.1,1.1,0,0,1,1.577.089.987.987,0,0,1-.106,1.352l-5.6,5.265-.018-.609a1.858,1.858,0,0,0-.739-1.456ZM1.075,14.738a.406.406,0,0,1-.023-.573l.97-1.071v0l1-6.937a1.024,1.024,0,0,1,1.046-.994,1.024,1.024,0,0,1,1.046.994l.027.9a1.936,1.936,0,0,0-1.72,1.8l-.959,6.624-.279.308Zm18.5.011-2.734,2.6c-2.335,2.219-4.777,4-6.921,4.444a.463.463,0,0,0-.179.078l-1.236.9a.461.461,0,0,1-.583-.036l-5.5-5.218a.406.406,0,0,1-.023-.573l.97-1.071v0l1-6.937a1.047,1.047,0,0,1,2.092,0l.049,1.637A.475.475,0,0,0,7,11.02a.49.49,0,0,0,.34-.136L12.905,5.6a1.1,1.1,0,0,1,1.577.089.987.987,0,0,1-.106,1.352l-3.831,3.639a.467.467,0,0,0,0,.684h0a.535.535,0,0,0,.729,0L16.2,6.687a1.1,1.1,0,0,1,1.577.089.987.987,0,0,1-.106,1.352l-4.9,4.657a.473.473,0,0,0,0,.694.528.528,0,0,0,.719,0l3.854-3.661a1.1,1.1,0,0,1,1.577.089.987.987,0,0,1-.106,1.352L15,14.885a.484.484,0,0,0,0,.709L15,15.6a.506.506,0,0,0,.69,0l2.367-2.248a1.142,1.142,0,0,1,.783-.31,1.061,1.061,0,0,1,.64.209A.974.974,0,0,1,19.577,14.75Z" transform="translate(0 0.242)"/>
    <line id="Line_26" data-name="Line 26" class="cls-2" y1="2.774" x2="1.387" transform="translate(19.839 0)"/>
    <line id="Line_27" data-name="Line 27" class="cls-2" y1="1.387" x2="2.774" transform="translate(21.226 2.774)"/>
  </g>
</svg>
