<svg id="clap_button" data-name="clap button" xmlns="http://www.w3.org/2000/svg" width="40" height="40" viewBox="0 0 40 40">
  <defs>
    <style>
      .cls-1, .cls-4 {
        fill: none;
      }

      .cls-1, .cls-2 {
        stroke: #fff;
      }

      .cls-1 {
        stroke-width: 2px;
      }

      .cls-2 {
        fill: #fff;
        stroke-width: 0.3px;
      }

      .cls-3 {
        stroke: none;
      }
    </style>
  </defs>
  <g id="Ellipse_2" data-name="Ellipse 2" class="cls-1">
    <circle class="cls-3" cx="20" cy="20" r="20"/>
    <circle class="cls-4" cx="20" cy="20" r="19"/>
  </g>
  <path id="hand017_-_E1E2" data-name="hand017 - E1E2" class="cls-2" d="M6.068-23.889A3.861,3.861,0,0,0,3.415-25.2a10.63,10.63,0,0,0-2.442-.07,8.7,8.7,0,0,0,.121-2.437A5.149,5.149,0,0,0,.114-30.5a1.788,1.788,0,0,0-1.583-.648,1.087,1.087,0,0,0-.814.7c-.136.254-.271.606-.437,1.014-.618,1.606-1.628,4.156-4.01,5.72v-.1a.908.908,0,0,0-.362-.733,1.159,1.159,0,0,0-.889-.211l-2.442.437a1.08,1.08,0,0,0-.92,1.042v7.988a1.02,1.02,0,0,0,.256.662,1.12,1.12,0,0,0,.663.38l2.442.423a1.063,1.063,0,0,0,.211.014,1.132,1.132,0,0,0,.678-.211.949.949,0,0,0,.362-.733,15.233,15.233,0,0,0,3.663,1.24,17.823,17.823,0,0,0,2.94.352H.114a6.046,6.046,0,0,0,2.276-.352,5.356,5.356,0,0,0,2.246-2.043,13.251,13.251,0,0,0,1.523-3.212,10.521,10.521,0,0,0,.5-2.8A3.8,3.8,0,0,0,6.068-23.889Zm-.588,2.31a9.049,9.049,0,0,1-.452,2.508c-.693,2.212-1.99,4.128-3.09,4.55A5.345,5.345,0,0,1-.1-14.253a14.076,14.076,0,0,1-2.713-.338,14.6,14.6,0,0,1-2.533-.747,5.794,5.794,0,0,1-1.387-.718V-22.41a9.054,9.054,0,0,0,1.884-1.352,10.156,10.156,0,0,0,1.553-1.831A17.457,17.457,0,0,0-1.62-29.045a9.787,9.787,0,0,1,.437-1,.616.616,0,0,1,.392.254c.784.888.995,3.353.422,4.987l-.286.845L.28-24.1a10.281,10.281,0,0,1,2.94-.014,2.846,2.846,0,0,1,1.869.845A2.774,2.774,0,0,1,5.48-21.579ZM-7.906-14.915l-2.261-.394v-7.931l2.261-.394Z" transform="translate(22.343 42.154)"/>
</svg>
