<svg xmlns="http://www.w3.org/2000/svg" width="152" height="117" viewBox="0 0 152 117">
  <defs>
    <style>
      .cls-1 {
        fill: #756eff;
      }
    </style>
  </defs>
  <g id="bone" transform="translate(-1.001 -59.787)">
    <g id="Group_36" data-name="Group 36" transform="translate(1.001 59.787)">
      <g id="Group_35" data-name="Group 35">
        <path id="Path_10" data-name="Path 10" class="cls-1" d="M152.085,155.915l-28.372-23.625c-.524-5.128-4.356-34.25-24.929-51.783A54.643,54.643,0,0,0,66.229,67.715a12.83,12.83,0,0,0-24.422,2.314c-.756.2-1.464.465-2.2.692-.047.017-.094.024-.139.044A50.255,50.255,0,0,0,14.114,87.817C-3.173,109.944,1.529,141.69,1.737,143.03a2.544,2.544,0,0,0,1.521,1.952,2.515,2.515,0,0,0,2.454-.275,13.879,13.879,0,0,1,7.336-2.033,15.253,15.253,0,0,1,7.615,2.523,2.483,2.483,0,0,0,.315.676c.97,1.315,23.011,30.915,42.312,30.914a17.947,17.947,0,0,0,2.573-.183c7.383-1.074,15.432-4.534,23.953-8.2,13.426-5.771,28.653-12.314,44.3-10.728l15.932,2.7a2.505,2.505,0,0,0,2.726-1.448A2.554,2.554,0,0,0,152.085,155.915Zm-33.728-25.493c-2.27-.186-5.654-.426-9.794-.608l-.332-2.506c-.007-.075-.02-.149-.032-.222-.57-3-5.169-26.612-11.323-41.433C112.49,100.007,117.156,122.361,118.357,130.422ZM54.345,64.875a7.863,7.863,0,0,1,5.921,2.678c-1.84.028-3.7.092-5.6.255-2.433.209-4.772.537-7.051.942A7.789,7.789,0,0,1,54.345,64.875ZM36.133,89.184a27.119,27.119,0,0,1,5.735-13.839,66.929,66.929,0,0,1,13.225-2.467,56.015,56.015,0,0,1,32.529,6.079c.012.019.012.041.025.06.74,1.1,1.427,2.214,2.043,3.32,7.213,12.817,13.246,44.187,13.53,45.689q.022.2.059.473l.15,1.136a229.325,229.325,0,0,0-30.24,1.077,293.963,293.963,0,0,0-34.578,6.308C37.712,130.861,33.849,102.714,36.133,89.184Zm-23.085,48.4a19.52,19.52,0,0,0-6.669,1.182c-.67-8.635-1.017-31.531,11.739-47.835A43.905,43.905,0,0,1,34.126,78.242a40.326,40.326,0,0,0-2.99,10.092c-2.5,14.827,1.733,44.568,2.528,49.9-4.814,1.212-8.456,2.221-10.206,2.718A20.388,20.388,0,0,0,13.048,137.587ZM134.791,152.64c-17.136-1.74-32.982,5.076-46.969,11.091-8.207,3.529-15.959,6.861-22.687,7.839-12.847,1.88-30.455-16.549-38.218-26.305a329.065,329.065,0,0,1,46.821-9.494,249.61,249.61,0,0,1,46.079-.114L141.6,153.792Z" transform="translate(-1.001 -59.787)"/>
        <path id="Path_11" data-name="Path 11" class="cls-1" d="M200.112,187.455c10.742,0,19.482-7.581,19.482-16.9s-8.739-16.9-19.482-16.9-19.482,7.581-19.482,16.9S189.37,187.455,200.112,187.455Zm0-28.6c7.876,0,14.282,5.248,14.282,11.7s-6.406,11.7-14.282,11.7-14.282-5.248-14.282-11.7S192.236,158.855,200.112,158.855Z" transform="translate(-127.783 -125.92)"/>
      </g>
    </g>
  </g>
</svg>
