<svg xmlns="http://www.w3.org/2000/svg" width="156" height="119" viewBox="0 0 156 119">
  <defs>
    <style>
      .cls-1 {
        fill: #756eff;
      }
    </style>
  </defs>
  <g id="chap-formatura" transform="translate(0 -41.75)">
    <g id="Group_37" data-name="Group 37" transform="translate(0 41.75)">
      <path id="Path_12" data-name="Path 12" class="cls-1" d="M150.818,74.221,88.632,43.765c-5.361-2.687-14.474-2.687-19.835,0L5.182,74.221C.715,76.371,0,79.416,0,81.029s.715,4.479,5.182,6.808l5.182,2.508v28.664a8.778,8.778,0,0,0-5.54,8.062,8.894,8.894,0,0,0,5.361,8.062L2.144,160.75H24.66l-8.041-25.618a8.688,8.688,0,0,0-.179-16.123V93.39l9.471,4.658v37.263a2.9,2.9,0,0,0,.536,1.612C27.34,138,43.959,160.75,77.911,160.75s50.57-22.931,51.285-23.827a2.9,2.9,0,0,0,.536-1.612V98.227l21.086-10.391c4.467-2.15,5.182-5.2,5.182-6.808C155.821,79.416,155.285,76.371,150.818,74.221Zm-26.8,60.194C121.155,138,105.787,155.2,77.911,155.2s-43.244-17.2-46.1-20.781V100.556L68.8,118.292a24.046,24.046,0,0,0,9.828,1.971,21.712,21.712,0,0,0,10.007-2.15l35.381-17.377Zm24.3-51.6L126.873,93.39a2.052,2.052,0,0,0-1.966,1.075L86.131,113.275c-3.753,1.971-11.079,1.971-15.01,0L23.409,90.344l54.859-6.449a2.79,2.79,0,0,0-.536-5.554L14.117,85.866,7.684,82.82a3.608,3.608,0,0,1-1.966-1.612c0-.179.357-.9,1.966-1.612L71.3,48.961a18.419,18.419,0,0,1,7.326-1.433,18.073,18.073,0,0,1,7.505,1.433l62.186,30.455c1.608.717,1.966,1.433,1.966,1.791A4.917,4.917,0,0,1,148.316,82.82Z" transform="translate(0 -41.75)"/>
    </g>
  </g>
</svg>
