<svg xmlns="http://www.w3.org/2000/svg" viewBox="0 0 345 245"><defs><style>.cls-1,.cls-3{fill:none;stroke-miterlimit:10;stroke-width:2px;}.cls-1{stroke:#756eff;}.cls-2,.cls-4{fill:#756eff;}.cls-3{stroke:#fff;}.cls-4{font-size:158px;font-family:Muli-SemiBold, Muli SemiBold;font-weight:600;}</style></defs><title>Prancheta 7</title><g id="_404" data-name="404"><path class="cls-1" d="M73.85,103a25.15,25.15,0,0,0-1.35-7.41A27.05,27.05,0,0,0,68.37,88C66,85,63.77,83.29,60.64,81a74.72,74.72,0,0,0-11-6.73L50.67,67,46,63c-1.19,2.65-2.39,5.29-3.58,7.93l-2.94-1.06-2,2.44L38.62,75l-7.68,4.51,4.88,4.21,6.8-1.79A51.42,51.42,0,0,0,52,94.41a34.09,34.09,0,0,0,6.8,5.23,25.23,25.23,0,0,0,6.48,2.72A24,24,0,0,0,73.85,103Z"/><circle class="cls-1" cx="61.85" cy="92.32" r="3.21" transform="translate(-4.85 3.44) rotate(-3.07)"/><path class="cls-2" d="M153.38,206.21a56.06,56.06,0,0,0,56.88,14.32,49.54,49.54,0,0,1-70.06-70.06A56,56,0,0,0,153.38,206.21Z"/><circle class="cls-1" cx="175.23" cy="185.5" r="55.49"/><circle class="cls-1" cx="157.8" cy="157.18" r="10.84"/><circle class="cls-1" cx="202.55" cy="157.18" r="4.91"/><circle class="cls-1" cx="167.77" cy="138.75" r="2.62"/><circle class="cls-3" cx="141.13" cy="208.95" r="4.21"/><circle class="cls-1" cx="211.85" cy="208.95" r="2.46"/><path class="cls-3" d="M193.88,223.13a5.92,5.92,0,0,1,.17,1.41A6,6,0,1,1,182.6,222"/><path class="cls-1" d="M182.6,222a6,6,0,0,1,11.28,1.1"/><circle class="cls-2" cx="154.06" cy="185.96" r="4.67"/><circle class="cls-2" cx="207.19" cy="185.96" r="4.67"/><path class="cls-1" d="M165.2,209a16.12,16.12,0,0,1,31.6-.33"/><text class="cls-4" transform="translate(226.22 243.63)">4</text><text class="cls-4" transform="translate(28.7 243.63)">4</text><rect class="cls-2" x="7.21" y="56.71" width="33.86" height="2.89" rx="1.45" transform="translate(44.91 -1.28) rotate(41.8)"/><rect class="cls-2" x="27.06" y="58.01" width="15.28" height="2.89" rx="1.45" transform="translate(48.45 -8) rotate(41.8)"/><rect class="cls-2" x="12.61" y="64.07" width="22.99" height="2.89" rx="1.45" transform="translate(49.8 0.61) rotate(41.8)"/></g></svg>