<svg xmlns="http://www.w3.org/2000/svg" width="112.773" height="112.773" viewBox="0 0 112.773 112.773"><defs><style>.a{fill:#c6c5d4;}</style></defs><g transform="translate(-616.921 -211.08)"><g transform="translate(616.921 211.08)"><path class="a" d="M0,0V3.754H1.88V5.631a9.385,9.385,0,0,0,5.639,8.59V45.049H3.759V48.8H7.518v31.91h97.736V48.8h3.759V45.049h-3.759V14.221a9.385,9.385,0,0,0,5.639-8.59V3.754h1.88V0ZM80.821,3.754H92.1V5.631a5.639,5.639,0,0,1-11.277,0Zm-15.036,0H77.061V5.631a5.639,5.639,0,0,1-11.277,0Zm-15.036,0H62.025V5.631a5.639,5.639,0,0,1-11.277,0Zm-15.036,0H46.989V5.631a5.639,5.639,0,0,1-11.277,0Zm-15.036,0H31.952V5.631a5.639,5.639,0,0,1-11.277,0ZM18.8,11.2a9.319,9.319,0,0,0,15.036,0,9.446,9.446,0,0,0,1.81,1.829A35.641,35.641,0,0,1,16.925,42.758l-4.244,2.29h-1.4V15.016A9.368,9.368,0,0,0,18.8,11.2ZM5.639,5.631V3.754H16.916V5.631a5.639,5.639,0,0,1-11.277,0ZM20.675,76.958h-9.4V48.8h.913l2.539,3.55A31.691,31.691,0,0,1,20.675,70.9Zm67.664,0h-63.9V70.9a35.414,35.414,0,0,0-6.646-20.724L16.809,48.8h7.626V45.049H20.457A39.412,39.412,0,0,0,39.313,14.78,9.239,9.239,0,0,0,48.868,11.2a9.319,9.319,0,0,0,15.036,0A9.239,9.239,0,0,0,73.46,14.78,39.412,39.412,0,0,0,92.316,45.049H88.339V48.8h7.626l-.979,1.368A35.414,35.414,0,0,0,88.339,70.9Zm13.157,0H92.1V70.9a31.691,31.691,0,0,1,5.945-18.543l2.539-3.55h.913Zm0-31.91h-1.4l-4.247-2.292A35.638,35.638,0,0,1,77.131,13.034a9.446,9.446,0,0,0,1.81-1.829,9.319,9.319,0,0,0,15.036,0,9.368,9.368,0,0,0,7.518,3.812Zm5.639-39.418a5.639,5.639,0,0,1-11.277,0V3.754h11.277Zm0,0"/><path class="a" d="M214.631,371.315v-5.658A5.658,5.658,0,0,0,208.973,360H197.658A5.658,5.658,0,0,0,192,365.658v5.658h3.772v-5.658a1.886,1.886,0,0,1,1.886-1.886h11.315a1.886,1.886,0,0,1,1.886,1.886v5.658Zm0,0" transform="translate(-146.929 -275.513)"/><path class="a" d="M102.631,371.315v-5.658A5.658,5.658,0,0,0,96.973,360H85.658A5.658,5.658,0,0,0,80,365.658v5.658h3.772v-5.658a1.886,1.886,0,0,1,1.886-1.886H96.973a1.886,1.886,0,0,1,1.886,1.886v5.658Zm0,0" transform="translate(-61.22 -275.513)"/><path class="a" d="M326.631,371.315v-5.658A5.658,5.658,0,0,0,320.973,360H309.658A5.658,5.658,0,0,0,304,365.658v5.658h3.772v-5.658a1.886,1.886,0,0,1,1.886-1.886h11.315a1.886,1.886,0,0,1,1.886,1.886v5.658Zm0,0" transform="translate(-232.638 -275.513)"/><path class="a" d="M107.134,421.658A5.649,5.649,0,0,0,101.5,416H90.218a5.649,5.649,0,0,0-5.639,5.658v5.658H80.821v-5.658A5.649,5.649,0,0,0,75.182,416H63.9a5.649,5.649,0,0,0-5.639,5.658v5.658H54.507v-5.658A5.649,5.649,0,0,0,48.868,416H37.591a5.649,5.649,0,0,0-5.639,5.658v5.658H28.193v-5.658A5.649,5.649,0,0,0,22.555,416H11.277a5.649,5.649,0,0,0-5.639,5.658v5.658H0v3.772H112.773v-3.772h-5.639Zm-18.8,0a1.883,1.883,0,0,1,1.88-1.886H101.5a1.883,1.883,0,0,1,1.88,1.886v5.658H88.339Zm-26.314,0a1.883,1.883,0,0,1,1.88-1.886H75.182a1.883,1.883,0,0,1,1.88,1.886v5.658H62.025Zm-26.314,0a1.883,1.883,0,0,1,1.88-1.886H48.868a1.883,1.883,0,0,1,1.88,1.886v5.658H35.711Zm-26.314,0a1.883,1.883,0,0,1,1.88-1.886H22.555a1.883,1.883,0,0,1,1.88,1.886v5.658H9.4Zm0,0" transform="translate(0 -318.314)"/></g></g></svg>